<?xml version="1.0" encoding="utf-8"?>
<!-- Generator: Adobe Illustrator 16.0.3, SVG Export Plug-In . SVG Version: 6.00 Build 0)  -->
<!DOCTYPE svg PUBLIC "-//W3C//DTD SVG 1.1//EN" "http://www.w3.org/Graphics/SVG/1.1/DTD/svg11.dtd">
<svg version="1.1" id="Capa_1" xmlns="http://www.w3.org/2000/svg" xmlns:xlink="http://www.w3.org/1999/xlink" x="0px" y="0px"
	 width="20px" height="20px" viewBox="0 0 20 20" enable-background="new 0 0 20 20" xml:space="preserve">
<g>
	<g>
		<path fill="white" d="M5,9H2V3h3V9z M3,8h1V4H3V8z"/>
	</g>
	<g>
		<path fill="white" d="M18,9h-3V3h3V9z M16,8h1V4h-1V8z"/>
	</g>
	<g>
		<path fill="white" d="M14,20H6v-2h1v-1h1l-0.003-2.208C6.957,14.4,4,13.08,4,10.719V0h12l-0.027,10.896c-0.054,0.157-1.28,3.643-3.973,4.036V17
			h1v1h1V20z M7,19h6h-1v-1h-1v-4h0.5c2.133,0,3.311-2.859,3.5-3.355V1H5v9.719c0,1.724,2.631,2.925,3.646,3.241l0.35,0.11L9,18H8v1
			H7z"/>
	</g>
</g>
</svg>
