<?xml version="1.0" encoding="utf-8"?>
<!-- Generator: Adobe Illustrator 16.0.3, SVG Export Plug-In . SVG Version: 6.00 Build 0)  -->
<!DOCTYPE svg PUBLIC "-//W3C//DTD SVG 1.1//EN" "http://www.w3.org/Graphics/SVG/1.1/DTD/svg11.dtd">
<svg version="1.1" id="Capa_1" xmlns="http://www.w3.org/2000/svg" xmlns:xlink="http://www.w3.org/1999/xlink" x="0px" y="0px"
	 width="20px" height="6.25px" viewBox="0 0 20 6.25" enable-background="new 0 0 20 6.25" xml:space="preserve">
<image display="none" overflow="visible" enable-background="new    " width="107" height="25" xlink:href="A3576410.jpeg"  transform="matrix(1 0 0 1 -3.0005 3.5005)">
</image>
<g>
	<g>
		<path fill="#FFFFFF" d="M9.381,1.636l-0.73,2.2v1.618H8.212V3.836l-0.731-2.2l0.4-0.007l0.555,1.757l0.552-1.757L9.381,1.636z"/>
		<path fill="#FFFFFF" d="M9.95,2.55c0.223,0,0.402,0.129,0.535,0.387c0.134,0.257,0.2,0.622,0.2,1.092
			c0,0.472-0.066,0.834-0.2,1.095c-0.134,0.258-0.312,0.388-0.535,0.388c-0.222,0-0.4-0.13-0.534-0.388
			C9.282,4.863,9.215,4.501,9.215,4.029c0-0.47,0.067-0.835,0.201-1.092C9.55,2.679,9.728,2.55,9.95,2.55z M9.951,5.219
			c0.132,0,0.135,0.028,0.217-0.154s0.123-0.674,0.123-1.033c0-0.36-0.041-0.853-0.123-1.035c-0.083-0.183-0.109-0.152-0.241-0.152
			S9.814,2.816,9.731,2.998S9.608,3.672,9.608,4.033c0,0.359,0.041,0.851,0.123,1.033C9.815,5.249,9.818,5.219,9.951,5.219z"/>
		<path fill="#FFFFFF" d="M12.093,4.865c-0.143,0.285-0.137,0.648-0.314,0.648c-0.364,0-0.714-0.35-0.714-1.048V2.614h0.414v1.832
			c0,0.232,0.023,0.617,0.069,0.72c0.046,0.101,0.125,0.151,0.231,0.151c0.159,0,0.179-0.15,0.312-0.453v-2.25h0.388v2.833h-0.386
			V4.865z"/>
		<path fill="#FFFFFF" d="M14.249,2.188h-0.696v3.26h-0.516v-3.26H12.34V1.643h1.91L14.249,2.188L14.249,2.188z"/>
		<path fill="#FFFFFF" d="M15.175,4.865c-0.155,0.285-0.169,0.648-0.364,0.648c-0.406,0-0.773-0.35-0.773-1.048V2.614h0.444v1.832
			c0,0.232,0.026,0.617,0.078,0.72c0.051,0.101,0.137,0.151,0.256,0.151c0.178,0,0.214-0.15,0.359-0.453v-2.25h0.42v2.833h-0.42
			V4.865z"/>
		<path fill="#FFFFFF" d="M16.299,2.963c0.128-0.269,0.167-0.414,0.344-0.414c0.206,0,0.365,0.131,0.48,0.393
			c0.113,0.263,0.17,0.617,0.17,1.064c0,0.464-0.063,0.833-0.189,1.103c-0.128,0.269-0.286,0.402-0.479,0.402
			c-0.171,0-0.205-0.084-0.324-0.273v0.219l-0.392-0.01V1.533l0.391,0.01V2.963z M16.3,5.004c0.12,0.23,0.145,0.199,0.301,0.199
			c0.121,0,0.125,0.047,0.196-0.14c0.074-0.186,0.109-0.683,0.109-1.051c0-0.349-0.033-0.833-0.103-1.015
			c-0.066-0.18-0.083-0.186-0.203-0.186c-0.155,0-0.172,0.083-0.301,0.406V5.004L16.3,5.004z"/>
		<path fill="#FFFFFF" d="M18.129,5.512c-0.199,0-0.361-0.132-0.484-0.392c-0.122-0.261-0.183-0.625-0.183-1.091
			c0-0.462,0.059-0.825,0.176-1.087c0.12-0.262,0.273-0.393,0.466-0.393c0.193,0,0.351,0.129,0.468,0.387
			c0.115,0.257,0.175,0.622,0.175,1.093v0.119l-0.899,0.006c0.012,0.328,0.056,0.791,0.132,0.951
			c0.077,0.157,0.104,0.127,0.217,0.127c0.085,0,0.143-0.055,0.212-0.146c0.068-0.09,0.056-0.323,0.06-0.489h0.252
			c-0.019,0.291-0.081,0.518-0.191,0.676C18.421,5.434,18.285,5.512,18.129,5.512z M18.362,3.937
			c-0.02-0.272-0.065-0.697-0.136-0.832c-0.067-0.136-0.023-0.165-0.124-0.165c-0.099,0-0.022,0.051-0.091,0.187
			c-0.07,0.134-0.113,0.559-0.135,0.833L18.362,3.937L18.362,3.937z"/>
	</g>
	<g>
		<path fill="#FF0000" d="M6.913,3.5c0,2.221,0,2-2.2,2H2.731c-2.2,0-2.2,0.2-2.2-2l0,0c0-2.174,0-2,2.2-2h1.981
			C6.913,1.5,6.913,1.298,6.913,3.5L6.913,3.5z"/>
		<polygon fill="#FFFFFF" points="4.438,3.515 3.805,3.92 3.172,4.324 3.172,3.516 3.172,2.707 3.805,3.11 		"/>
	</g>
</g>
</svg>
