<?xml version="1.0" encoding="utf-8"?>
<!-- Generator: Adobe Illustrator 16.0.3, SVG Export Plug-In . SVG Version: 6.00 Build 0)  -->
<!DOCTYPE svg PUBLIC "-//W3C//DTD SVG 1.0//EN" "http://www.w3.org/TR/2001/REC-SVG-20010904/DTD/svg10.dtd">
<svg version="1.0" id="Capa_1" xmlns="http://www.w3.org/2000/svg" xmlns:xlink="http://www.w3.org/1999/xlink" x="0px" y="0px" width="30px" height="30px" viewBox="-10 -10 80 80" enable-background="new 0 0 50 50" xml:space="preserve">
<g>
	<path fill="white" d="M24.942,50.063C11.189,50.063,0,38.841,0,25.043C0,11.248,11.189,0.023,24.942,0.023c13.755,0,24.945,11.225,24.945,25.021
		C49.887,38.841,38.697,50.063,24.942,50.063z M24.942,2.509c-12.382,0-22.456,10.109-22.456,22.535
		c0,12.425,10.074,22.534,22.456,22.534c12.383,0,22.458-10.108,22.458-22.534C47.399,12.618,37.325,2.509,24.942,2.509z"/>
</g>
<g>
	<path fill="white" d="M23.285,31.313c-0.011-0.408-0.016-0.716-0.016-0.92c0-1.204,0.168-2.245,0.509-3.122c0.249-0.658,0.652-1.325,1.207-1.997
		c0.408-0.488,1.142-1.203,2.202-2.14c1.06-0.939,1.748-1.687,2.064-2.245c0.318-0.557,0.476-1.167,0.476-1.826
		c0-1.195-0.465-2.244-1.395-3.148c-0.928-0.905-2.067-1.357-3.416-1.357c-1.303,0-2.39,0.409-3.263,1.229
		c-0.875,0.819-1.447,2.099-1.718,3.839l-3.143-0.375c0.281-2.332,1.123-4.118,2.524-5.358c1.399-1.239,3.248-1.86,5.55-1.86
		c2.437,0,4.377,0.666,5.831,1.997c1.449,1.332,2.176,2.94,2.176,4.829c0,1.093-0.257,2.098-0.768,3.02
		c-0.51,0.921-1.506,2.042-2.991,3.361c-0.996,0.888-1.648,1.542-1.954,1.961c-0.306,0.422-0.532,0.906-0.68,1.45
		c-0.146,0.547-0.231,1.436-0.255,2.661H23.285z M23.098,37.475v-3.497h3.486v3.497H23.098z"/>
</g>
</svg>
